<svg width="64" height="64" viewBox="0 0 64 64" fill="none" xmlns="http://www.w3.org/2000/svg">
<path d="M32 2C15.432 2 2 15.434 2 31.996C2 48.566 15.432 62 32 62C48.566 62 62 48.566 62 31.996C62 15.428 48.566 2 32 2ZM54.148 49.42C53.6354 49.9421 53.0231 50.3559 52.3475 50.6367C51.6718 50.9176 50.9467 51.0598 50.215 51.055C47.844 51.055 45.249 49.713 42.71 47.174C41.717 46.181 40.834 45.296 40.424 44.772C42.028 44.0361 43.5181 43.074 44.849 41.915L52.439 47.712L46.637 40.111C47.7868 38.7647 48.7107 37.2409 49.373 35.599C49.872 35.95 50.824 36.9 51.902 37.979C56.123 42.201 56.983 46.585 54.148 49.42M53.318 36.564C51.651 34.898 50.755 34.005 49.981 33.65C50.022 32.631 48.663 32.241 48.11 33.019C43.782 39.126 38.659 40.664 32 40.664C25.341 40.664 20.218 39.127 15.889 33.019C15.286 32.169 13.699 32.704 14.05 33.938C16.323 41.943 24.05 46.605 32 46.605C34.2172 46.6012 36.4189 46.235 38.518 45.521C38.945 46.233 39.816 47.105 41.297 48.587C44.046 51.335 46.937 52.848 49.694 53.02C44.908 57.058 38.736 59.5 32 59.5C16.836 59.5 4.5 47.162 4.5 31.996C4.5 16.835 16.836 4.5 32 4.5C47.163 4.5 59.5 16.835 59.5 31.996C59.5 35.786 58.724 39.396 57.331 42.684C56.729 40.788 55.473 38.721 53.318 36.564" fill="black"/>
<path d="M21.065 17.1855C18.264 17.1855 15.463 19.7435 13.605 24.8545C13.421 25.3695 14.379 26.2975 14.859 25.7925C16.661 23.8915 18.816 23.1345 21.066 23.1345C23.316 23.1345 25.47 23.8915 27.273 25.7925C27.752 26.2975 28.711 25.3685 28.527 24.8545C26.667 19.7425 23.866 17.1855 21.065 17.1855ZM42.935 17.1855C40.134 17.1855 37.333 19.7435 35.474 24.8545C35.29 25.3695 36.249 26.2975 36.728 25.7925C38.531 23.8915 40.685 23.1345 42.935 23.1345C45.185 23.1345 47.339 23.8915 49.142 25.7925C49.621 26.2975 50.58 25.3685 50.396 24.8545C48.536 19.7425 45.735 17.1855 42.935 17.1855Z" fill="black"/>
</svg>
